<?xml version="1.0" encoding="UTF-8" standalone="no"?>
<!DOCTYPE svg PUBLIC "-//W3C//DTD SVG 1.1//EN"
 "http://www.w3.org/Graphics/SVG/1.1/DTD/svg11.dtd">
<!-- Generated by graphviz version 2.34.0 (20130907.0228)
 -->
<!-- Title: %3 Pages: 1 -->
<svg width="1192pt" height="342pt"
 viewBox="0.00 0.00 1192.00 342.00" xmlns="http://www.w3.org/2000/svg" xmlns:xlink="http://www.w3.org/1999/xlink">
<g id="graph0" class="graph" transform="scale(1 1) rotate(0) translate(4 338)">
<title>%3</title>
<polygon fill="white" stroke="white" points="-4,4 -4,-338 1188,-338 1188,4 -4,4"/>
<!-- org_liveSense_framework_jodreports -->
<g id="node1" class="node"><title>org_liveSense_framework_jodreports</title>
<polygon fill="yellow" stroke="black" points="230.5,-297 230.5,-333 429.5,-333 429.5,-297 230.5,-297"/>
<text text-anchor="middle" x="330" y="-322.1" font-family="Arial" font-size="8.00">liveSense :: Framework :: JODReports</text>
<polyline fill="none" stroke="black" points="230.5,-315 429.5,-315 "/>
<text text-anchor="middle" x="330" y="-304.1" font-family="Arial" font-size="8.00">org.liveSense.framework.jodreports(2&#45;SNAPSHOT)</text>
</g>
<!-- org_apache_commons_io -->
<g id="node2" class="node"><title>org_apache_commons_io</title>
<polygon fill="green" stroke="black" points="0,-223 0,-259 120,-259 120,-223 0,-223"/>
<text text-anchor="middle" x="60" y="-248.1" font-family="Arial" font-size="8.00">Apache Commons IO Bundle</text>
<polyline fill="none" stroke="black" points="0,-241 120,-241 "/>
<text text-anchor="middle" x="60" y="-230.1" font-family="Arial" font-size="8.00">org.apache.commons.io(1.4)</text>
</g>
<!-- org_liveSense_framework_jodreports&#45;&gt;org_apache_commons_io -->
<g id="edge1" class="edge"><title>org_liveSense_framework_jodreports&#45;&gt;org_apache_commons_io</title>
<path fill="none" stroke="yellow" d="M266.014,-296.937C225.157,-286.042 172.17,-271.912 130.165,-260.711"/>
<polygon fill="yellow" stroke="yellow" points="130.85,-257.271 120.286,-258.076 129.047,-264.035 130.85,-257.271"/>
</g>
<!-- nu_xom -->
<g id="node3" class="node"><title>nu_xom</title>
<polygon fill="green" stroke="black" points="138.5,-223 138.5,-259 221.5,-259 221.5,-223 138.5,-223"/>
<text text-anchor="middle" x="180" y="-248.1" font-family="Arial" font-size="8.00">XOM</text>
<polyline fill="none" stroke="black" points="138.5,-241 221.5,-241 "/>
<text text-anchor="middle" x="180" y="-230.1" font-family="Arial" font-size="8.00">nu.xom(1.2.5.osgi)</text>
</g>
<!-- org_liveSense_framework_jodreports&#45;&gt;nu_xom -->
<g id="edge2" class="edge"><title>org_liveSense_framework_jodreports&#45;&gt;nu_xom</title>
<path fill="none" stroke="yellow" d="M294.452,-296.937C273.606,-286.931 247.074,-274.196 224.806,-263.507"/>
<polygon fill="yellow" stroke="yellow" points="226.082,-260.237 215.552,-259.065 223.053,-266.548 226.082,-260.237"/>
</g>
<!-- org_apache_servicemix_bundles_freemarker -->
<g id="node4" class="node"><title>org_apache_servicemix_bundles_freemarker</title>
<polygon fill="green" stroke="black" points="380,-223 380,-259 582,-259 582,-223 380,-223"/>
<text text-anchor="middle" x="481" y="-248.1" font-family="Arial" font-size="8.00">Apache ServiceMix :: Bundles :: freemarker</text>
<polyline fill="none" stroke="black" points="380,-241 582,-241 "/>
<text text-anchor="middle" x="481" y="-230.1" font-family="Arial" font-size="8.00">org.apache.servicemix.bundles.freemarker(2.3.18.1)</text>
</g>
<!-- org_liveSense_framework_jodreports&#45;&gt;org_apache_servicemix_bundles_freemarker -->
<g id="edge3" class="edge"><title>org_liveSense_framework_jodreports&#45;&gt;org_apache_servicemix_bundles_freemarker</title>
<path fill="none" stroke="yellow" d="M365.785,-296.937C386.77,-286.931 413.479,-274.196 435.895,-263.507"/>
<polygon fill="yellow" stroke="yellow" points="437.691,-266.528 445.211,-259.065 434.678,-260.21 437.691,-266.528"/>
</g>
<!-- org_ops4j_pax_logging_pax_logging_api -->
<g id="node5" class="node"><title>org_ops4j_pax_logging_pax_logging_api</title>
<polygon fill="green" stroke="black" points="934.5,-223 934.5,-259 1107.5,-259 1107.5,-223 934.5,-223"/>
<text text-anchor="middle" x="1021" y="-248.1" font-family="Arial" font-size="8.00">OPS4J Pax Logging &#45; API</text>
<polyline fill="none" stroke="black" points="934.5,-241 1107.5,-241 "/>
<text text-anchor="middle" x="1021" y="-230.1" font-family="Arial" font-size="8.00">org.ops4j.pax.logging.pax&#45;logging&#45;api(1.7.0)</text>
</g>
<!-- org_liveSense_framework_jodreports&#45;&gt;org_ops4j_pax_logging_pax_logging_api -->
<g id="edge4" class="edge"><title>org_liveSense_framework_jodreports&#45;&gt;org_ops4j_pax_logging_pax_logging_api</title>
<path fill="none" stroke="yellow" d="M429.739,-303.607C561.965,-289.83 793.761,-265.678 924.393,-252.066"/>
<polygon fill="yellow" stroke="yellow" points="924.809,-255.542 934.393,-251.024 924.084,-248.579 924.809,-255.542"/>
</g>
<!-- org_apache_servicemix_bundles_xerces -->
<g id="node6" class="node"><title>org_apache_servicemix_bundles_xerces</title>
<polygon fill="#3182bd" stroke="black" points="83,-75 83,-111 265,-111 265,-75 83,-75"/>
<text text-anchor="middle" x="174" y="-100.1" font-family="Arial" font-size="8.00">Apache ServiceMix :: Bundles :: xercesImpl</text>
<polyline fill="none" stroke="black" points="83,-93 265,-93 "/>
<text text-anchor="middle" x="174" y="-82.1" font-family="Arial" font-size="8.00">org.apache.servicemix.bundles.xerces(2.9.1.5)</text>
</g>
<!-- nu_xom&#45;&gt;org_apache_servicemix_bundles_xerces -->
<g id="edge5" class="edge"><title>nu_xom&#45;&gt;org_apache_servicemix_bundles_xerces</title>
<path fill="none" stroke="green" d="M138.296,-225.134C135.155,-224.06 132.03,-223.005 129,-222 77.7609,-205.014 45.0178,-229.461 13,-186 2.98273,-172.403 3.13765,-161.71 13,-148 27.4503,-127.912 49.7325,-115.191 73.1575,-107.167"/>
<polygon fill="green" stroke="green" points="74.3959,-110.446 82.8874,-104.11 72.2981,-103.768 74.3959,-110.446"/>
</g>
<!-- org_apache_servicemix_bundles_junit -->
<g id="node7" class="node"><title>org_apache_servicemix_bundles_junit</title>
<polygon fill="#3182bd" stroke="black" points="22.5,-149 22.5,-185 195.5,-185 195.5,-149 22.5,-149"/>
<text text-anchor="middle" x="109" y="-174.1" font-family="Arial" font-size="8.00">Apache ServiceMix :: Bundles :: junit</text>
<polyline fill="none" stroke="black" points="22.5,-167 195.5,-167 "/>
<text text-anchor="middle" x="109" y="-156.1" font-family="Arial" font-size="8.00">org.apache.servicemix.bundles.junit(3.8.2.4)</text>
</g>
<!-- nu_xom&#45;&gt;org_apache_servicemix_bundles_junit -->
<g id="edge6" class="edge"><title>nu_xom&#45;&gt;org_apache_servicemix_bundles_junit</title>
<path fill="none" stroke="green" d="M163.174,-222.937C154.286,-213.924 143.214,-202.696 133.401,-192.744"/>
<polygon fill="green" stroke="green" points="135.712,-190.104 126.198,-185.441 130.728,-195.019 135.712,-190.104"/>
</g>
<!-- org_apache_servicemix_bundles_freemarker&#45;&gt;org_ops4j_pax_logging_pax_logging_api -->
<g id="edge7" class="edge"><title>org_apache_servicemix_bundles_freemarker&#45;&gt;org_ops4j_pax_logging_pax_logging_api</title>
<path fill="none" stroke="green" d="M582.25,-241C696.21,-241 810.171,-241 924.131,-241"/>
<polygon fill="green" stroke="green" points="924.45,-244.5 934.45,-241 924.45,-237.5 924.45,-244.5"/>
</g>
<!-- org_apache_geronimo_specs_geronimo_servlet_3_0_spec -->
<g id="node8" class="node"><title>org_apache_geronimo_specs_geronimo_servlet_3_0_spec</title>
<polygon fill="#3182bd" stroke="black" points="214,-149 214,-185 444,-185 444,-149 214,-149"/>
<text text-anchor="middle" x="329" y="-174.1" font-family="Arial" font-size="8.00">Servlet 3.0</text>
<polyline fill="none" stroke="black" points="214,-167 444,-167 "/>
<text text-anchor="middle" x="329" y="-156.1" font-family="Arial" font-size="8.00">org.apache.geronimo.specs.geronimo&#45;servlet_3.0_spec(1.0)</text>
</g>
<!-- org_apache_servicemix_bundles_freemarker&#45;&gt;org_apache_geronimo_specs_geronimo_servlet_3_0_spec -->
<g id="edge8" class="edge"><title>org_apache_servicemix_bundles_freemarker&#45;&gt;org_apache_geronimo_specs_geronimo_servlet_3_0_spec</title>
<path fill="none" stroke="green" d="M444.978,-222.937C423.759,-212.886 396.728,-200.082 374.101,-189.364"/>
<polygon fill="green" stroke="green" points="375.562,-186.183 365.026,-185.065 372.565,-192.509 375.562,-186.183"/>
</g>
<!-- org_apache_servicemix_bundles_xalan -->
<g id="node9" class="node"><title>org_apache_servicemix_bundles_xalan</title>
<polygon fill="#3182bd" stroke="black" points="462,-149 462,-185 640,-185 640,-149 462,-149"/>
<text text-anchor="middle" x="551" y="-174.1" font-family="Arial" font-size="8.00">Apache ServiceMix :: Bundles :: xalan</text>
<polyline fill="none" stroke="black" points="462,-167 640,-167 "/>
<text text-anchor="middle" x="551" y="-156.1" font-family="Arial" font-size="8.00">org.apache.servicemix.bundles.xalan(2.7.1.6)</text>
</g>
<!-- org_apache_servicemix_bundles_freemarker&#45;&gt;org_apache_servicemix_bundles_xalan -->
<g id="edge9" class="edge"><title>org_apache_servicemix_bundles_freemarker&#45;&gt;org_apache_servicemix_bundles_xalan</title>
<path fill="none" stroke="green" d="M497.589,-222.937C506.352,-213.924 517.268,-202.696 526.943,-192.744"/>
<polygon fill="green" stroke="green" points="529.582,-195.05 534.044,-185.441 524.563,-190.171 529.582,-195.05"/>
</g>
<!-- org_apache_servicemix_bundles_rhino -->
<g id="node10" class="node"><title>org_apache_servicemix_bundles_rhino</title>
<polygon fill="#3182bd" stroke="black" points="658,-149 658,-185 854,-185 854,-149 658,-149"/>
<text text-anchor="middle" x="756" y="-174.1" font-family="Arial" font-size="8.00">Apache ServiceMix :: Bundles :: js</text>
<polyline fill="none" stroke="black" points="658,-167 854,-167 "/>
<text text-anchor="middle" x="756" y="-156.1" font-family="Arial" font-size="8.00">org.apache.servicemix.bundles.rhino(1.0.0.7R2_3)</text>
</g>
<!-- org_apache_servicemix_bundles_freemarker&#45;&gt;org_apache_servicemix_bundles_rhino -->
<g id="edge10" class="edge"><title>org_apache_servicemix_bundles_freemarker&#45;&gt;org_apache_servicemix_bundles_rhino</title>
<path fill="none" stroke="green" d="M546.171,-222.937C586.608,-212.35 638.711,-198.708 680.881,-187.667"/>
<polygon fill="green" stroke="green" points="682.033,-190.984 690.821,-185.065 680.26,-184.212 682.033,-190.984"/>
</g>
<!-- org_apache_felix_eventadmin -->
<g id="node12" class="node"><title>org_apache_felix_eventadmin</title>
<polygon fill="#9ecae1" stroke="black" points="951,-149 951,-185 1091,-185 1091,-149 951,-149"/>
<text text-anchor="middle" x="1021" y="-174.1" font-family="Arial" font-size="8.00">Apache Felix EventAdmin</text>
<polyline fill="none" stroke="black" points="951,-167 1091,-167 "/>
<text text-anchor="middle" x="1021" y="-156.1" font-family="Arial" font-size="8.00">org.apache.felix.eventadmin(1.3.2)</text>
</g>
<!-- org_ops4j_pax_logging_pax_logging_api&#45;&gt;org_apache_felix_eventadmin -->
<g id="edge12" class="edge"><title>org_ops4j_pax_logging_pax_logging_api&#45;&gt;org_apache_felix_eventadmin</title>
<path fill="none" stroke="#3182bd" d="M1015.16,-222.937C1014.3,-214.807 1014.05,-204.876 1014.41,-195.705"/>
<polygon fill="#3182bd" stroke="#3182bd" points="1017.92,-195.658 1015.12,-185.441 1010.94,-195.176 1017.92,-195.658"/>
</g>
<!-- org_apache_servicemix_bundles_xmlresolver -->
<g id="node11" class="node"><title>org_apache_servicemix_bundles_xmlresolver</title>
<polygon fill="#9ecae1" stroke="black" points="74,-1 74,-37 274,-37 274,-1 74,-1"/>
<text text-anchor="middle" x="174" y="-26.1" font-family="Arial" font-size="8.00">Apache ServiceMix :: Bundles :: xmlresolver</text>
<polyline fill="none" stroke="black" points="74,-19 274,-19 "/>
<text text-anchor="middle" x="174" y="-8.1" font-family="Arial" font-size="8.00">org.apache.servicemix.bundles.xmlresolver(1.2.0.5)</text>
</g>
<!-- org_apache_servicemix_bundles_xerces&#45;&gt;org_apache_servicemix_bundles_xmlresolver -->
<g id="edge11" class="edge"><title>org_apache_servicemix_bundles_xerces&#45;&gt;org_apache_servicemix_bundles_xmlresolver</title>
<path fill="none" stroke="#3182bd" d="M174,-74.937C174,-66.8072 174,-56.8761 174,-47.7047"/>
<polygon fill="#3182bd" stroke="#3182bd" points="177.5,-47.4406 174,-37.4407 170.5,-47.4407 177.5,-47.4406"/>
</g>
<!-- org_apache_servicemix_bundles_xalan&#45;&gt;org_apache_servicemix_bundles_xerces -->
<g id="edge13" class="edge"><title>org_apache_servicemix_bundles_xalan&#45;&gt;org_apache_servicemix_bundles_xerces</title>
<path fill="none" stroke="#3182bd" d="M461.656,-148.937C404.949,-138.107 331.504,-124.08 273.022,-112.911"/>
<polygon fill="#3182bd" stroke="#3182bd" points="273.508,-109.441 263.028,-111.003 272.194,-116.317 273.508,-109.441"/>
</g>
<!-- org_apache_servicemix_bundles_bcel -->
<g id="node13" class="node"><title>org_apache_servicemix_bundles_bcel</title>
<polygon fill="#9ecae1" stroke="black" points="464.5,-75 464.5,-111 637.5,-111 637.5,-75 464.5,-75"/>
<text text-anchor="middle" x="551" y="-100.1" font-family="Arial" font-size="8.00">Apache ServiceMix :: Bundles :: bcel</text>
<polyline fill="none" stroke="black" points="464.5,-93 637.5,-93 "/>
<text text-anchor="middle" x="551" y="-82.1" font-family="Arial" font-size="8.00">org.apache.servicemix.bundles.bcel(5.2.0.4)</text>
</g>
<!-- org_apache_servicemix_bundles_xalan&#45;&gt;org_apache_servicemix_bundles_bcel -->
<g id="edge14" class="edge"><title>org_apache_servicemix_bundles_xalan&#45;&gt;org_apache_servicemix_bundles_bcel</title>
<path fill="none" stroke="#3182bd" d="M551,-148.937C551,-140.807 551,-130.876 551,-121.705"/>
<polygon fill="#3182bd" stroke="#3182bd" points="554.5,-121.441 551,-111.441 547.5,-121.441 554.5,-121.441"/>
</g>
<!-- org_apache_servicemix_bundles_xmlbeans -->
<g id="node14" class="node"><title>org_apache_servicemix_bundles_xmlbeans</title>
<polygon fill="#9ecae1" stroke="black" points="657.5,-75 657.5,-111 850.5,-111 850.5,-75 657.5,-75"/>
<text text-anchor="middle" x="754" y="-100.1" font-family="Arial" font-size="8.00">Apache ServiceMix :: Bundles :: xmlbeans</text>
<polyline fill="none" stroke="black" points="657.5,-93 850.5,-93 "/>
<text text-anchor="middle" x="754" y="-82.1" font-family="Arial" font-size="8.00">org.apache.servicemix.bundles.xmlbeans(2.6.0.2)</text>
</g>
<!-- org_apache_servicemix_bundles_rhino&#45;&gt;org_apache_servicemix_bundles_xmlbeans -->
<g id="edge15" class="edge"><title>org_apache_servicemix_bundles_rhino&#45;&gt;org_apache_servicemix_bundles_xmlbeans</title>
<path fill="none" stroke="#3182bd" d="M755.526,-148.937C755.3,-140.807 755.024,-130.876 754.77,-121.705"/>
<polygon fill="#3182bd" stroke="#3182bd" points="758.261,-121.34 754.484,-111.441 751.264,-121.534 758.261,-121.34"/>
</g>
<!-- org_apache_felix_eventadmin&#45;&gt;org_ops4j_pax_logging_pax_logging_api -->
<g id="edge16" class="edge"><title>org_apache_felix_eventadmin&#45;&gt;org_ops4j_pax_logging_pax_logging_api</title>
<path fill="none" stroke="#9ecae1" d="M1026.88,-185.441C1027.72,-193.625 1027.95,-203.572 1027.57,-212.719"/>
<polygon fill="#9ecae1" stroke="#9ecae1" points="1024.06,-212.713 1026.84,-222.937 1031.04,-213.212 1024.06,-212.713"/>
</g>
<!-- org_apache_felix_configadmin -->
<g id="node15" class="node"><title>org_apache_felix_configadmin</title>
<polygon fill="#deebf7" stroke="black" points="869,-75 869,-111 1035,-111 1035,-75 869,-75"/>
<text text-anchor="middle" x="952" y="-100.1" font-family="Arial" font-size="8.00">Apache Felix Configuration Admin Service</text>
<polyline fill="none" stroke="black" points="869,-93 1035,-93 "/>
<text text-anchor="middle" x="952" y="-82.1" font-family="Arial" font-size="8.00">org.apache.felix.configadmin(1.6.0)</text>
</g>
<!-- org_apache_felix_eventadmin&#45;&gt;org_apache_felix_configadmin -->
<g id="edge17" class="edge"><title>org_apache_felix_eventadmin&#45;&gt;org_apache_felix_configadmin</title>
<path fill="none" stroke="#9ecae1" d="M1004.65,-148.937C996.01,-139.924 985.25,-128.696 975.713,-118.744"/>
<polygon fill="#9ecae1" stroke="#9ecae1" points="978.16,-116.239 968.714,-111.441 973.106,-121.082 978.16,-116.239"/>
</g>
<!-- org_apache_felix_metatype -->
<g id="node16" class="node"><title>org_apache_felix_metatype</title>
<polygon fill="#deebf7" stroke="black" points="1053.5,-75 1053.5,-111 1184.5,-111 1184.5,-75 1053.5,-75"/>
<text text-anchor="middle" x="1119" y="-100.1" font-family="Arial" font-size="8.00">Apache Felix Metatype Service</text>
<polyline fill="none" stroke="black" points="1053.5,-93 1184.5,-93 "/>
<text text-anchor="middle" x="1119" y="-82.1" font-family="Arial" font-size="8.00">org.apache.felix.metatype(1.0.6)</text>
</g>
<!-- org_apache_felix_eventadmin&#45;&gt;org_apache_felix_metatype -->
<g id="edge18" class="edge"><title>org_apache_felix_eventadmin&#45;&gt;org_apache_felix_metatype</title>
<path fill="none" stroke="#9ecae1" d="M1044.22,-148.937C1057.07,-139.501 1073.21,-127.639 1087.21,-117.354"/>
<polygon fill="#9ecae1" stroke="#9ecae1" points="1089.62,-119.931 1095.6,-111.19 1085.47,-114.29 1089.62,-119.931"/>
</g>
<!-- org_apache_felix_configadmin&#45;&gt;org_ops4j_pax_logging_pax_logging_api -->
<g id="edge19" class="edge"><title>org_apache_felix_configadmin&#45;&gt;org_ops4j_pax_logging_pax_logging_api</title>
<path fill="none" stroke="#deebf7" d="M944.674,-111.023C937.548,-130.35 929.477,-162.271 942,-186 948.801,-198.887 960.216,-209.282 972.284,-217.381"/>
<polygon fill="#deebf7" stroke="#deebf7" points="970.788,-220.572 981.13,-222.874 974.481,-214.625 970.788,-220.572"/>
</g>
<!-- org_apache_felix_metatype&#45;&gt;org_ops4j_pax_logging_pax_logging_api -->
<g id="edge20" class="edge"><title>org_apache_felix_metatype&#45;&gt;org_ops4j_pax_logging_pax_logging_api</title>
<path fill="none" stroke="#deebf7" d="M1119.19,-111.055C1118.62,-130.699 1115.19,-163.193 1100,-186 1091.55,-198.696 1079,-209.231 1066.37,-217.522"/>
<polygon fill="#deebf7" stroke="#deebf7" points="1064.34,-214.666 1057.67,-222.903 1068.02,-220.62 1064.34,-214.666"/>
</g>
</g>
</svg>
